<?xml version="1.0" encoding="UTF-8"?>
<svg id="Camada_2" xmlns="http://www.w3.org/2000/svg" viewBox="0 0 2426.47 755.77">
  <defs>
    <style>
      .cls-1 {
        fill-rule: evenodd;
      }
    </style>
  </defs>
  <g id="Camada_1-2" data-name="Camada_1">
    <g>
      <path class="cls-1" d="M0,49.05h145.87v53.05h-45.1v88.83h164.42v-88.83h-46.41v-53.05h148.5v53.05h-47.73v261.21h47.73v51.71h-148.5v-51.71h46.41v-120.67H100.78v120.67h45.1v51.71H0v-51.71h46.42V102.1H0v-53.05ZM1744.94,49.05h299.68v102.11h-50.39v-49.06h-145.86v87.52h124.63v51.7h-124.63v121.99h144.54v-70.27h53.02v121.98h-300.99v-51.71h49.06V102.1h-49.06v-53.05ZM434.92,49.05h300.99v102.11h-51.71v-49.06h-145.86v87.52h124.64v51.7h-124.64v121.99h144.54v-70.27h53.03v121.98h-300.99v-51.71h49.06V102.1h-49.06v-53.05ZM1832.46,0h107.4l26.52,31.81h-104.74l-29.18-31.81ZM2338.97,205.52c-37.13-9.3-62.32-7.95-100.78-19.88-33.16-11.93-39.77-31.84-39.77-45.1,0-14.59,14.57-50.39,67.61-50.39s88.84,35.8,90.18,66.29h51.7V49.05h-50.39v23.89l2.66,6.61v1.35-1.35c-1.35,0-2.66-3.98-7.98-7.95v-1.32c-14.57-13.27-45.07-29.18-90.15-29.18-54.36,0-118,34.47-118,99.44s45.07,84.86,84.86,95.47c38.46,10.61,58.34,10.61,91.48,19.88,31.81,7.95,53.05,27.83,53.05,57.02,0,26.52-17.22,62.32-86.18,62.32s-95.47-37.13-103.43-88.84h-49.06v128.61h50.39v-23.86l-1.32-6.64s1.32,3.98,7.95,7.95v1.35c25.17,19.88,59.66,33.14,102.09,33.14,49.06,0,132.62-25.17,132.62-112.69.01-63.62-33.15-92.8-87.51-108.71h0ZM1626.94,363.31V102.1h49.05v-53.05h-132.59l-88.84,214.81-1.31,10.62-2.66-10.62-87.52-214.81h-133.91v53.05h49.05v261.21h-49.05v51.71h149.81v-51.71h-46.41V107.39l4.01,11.96,102.09,243.96h29.18l102.09-243.96,2.66-13.28,1.32,14.59v242.65h-46.42v51.71h148.5v-51.71h-49.05Z"/>
      <path class="cls-1" d="M1123.08,363.31l-1.34-74.25c0-22.54-14.58-46.43-34.47-59.69-3.98-1.32-10.61-3.98-15.91-3.98,5.3,0,11.93,0,18.57-2.66,19.88-9.27,43.76-34.47,43.76-78.22,0-33.16-13.26-58.34-37.13-75.59-22.54-15.91-47.73-19.88-74.25-19.88h-204.18v53.05h46.41v261.22h-46.41v51.7h145.86v-51.7h-46.42v-115.37h100.78c34.47,1.32,47.73,23.86,47.73,42.42l3.98,124.63h99.44v-51.7h-46.41s0,.01,0,.01ZM1028.93,197.57h-111.37v-95.47h104.76c11.93,0,25.19,0,35.8,3.98,13.26,6.64,25.2,21.23,25.2,43.75-.01,27.86-25.2,47.74-54.38,47.74ZM799.55,544.96c47.74,0,68.95,26.52,68.95,59.66s-22.54,58.34-72.93,58.34h-34.47v91.5h-30.49v-209.49h68.95s0-.01,0-.01ZM761.09,636.47h37.13c22.54,0,38.44-11.96,38.44-33.16,0-15.91-9.27-31.81-37.13-31.81h-38.46v64.98h.01ZM1105.84,754.46h-33.15l-26.51-62.32h-91.49l-25.19,62.32h-33.15l92.81-210.84h21.22l95.46,210.84ZM966.62,664.3h67.62l-35.8-82.23-31.83,82.23h0ZM1454.56,754.46h-30.49v-209.5h30.49v209.5ZM1673.36,590.03c-19.88-15.91-38.46-21.21-54.36-21.21-19.88,0-35.82,9.27-35.82,23.86,0,41.11,98.13,39.77,98.13,107.4,0,31.81-26.52,55.68-63.66,55.68-23.86,0-45.07-5.29-63.63-18.55v-38.46c17.22,19.88,38.46,30.5,61,30.5,25.17,0,37.11-14.59,37.11-26.52,0-42.42-99.45-47.75-99.45-104.74,0-34.47,27.86-55.71,68.95-55.71,18.57,0,34.47,3.98,51.72,14.59v33.14h.01,0ZM1325.95,729.28c-3.98-5.32-7.95-10.61-11.93-17.25-15.91-26.52-29.18-45.1-49.06-57.02,23.86-9.27,37.13-27.83,37.13-51.7,0-35.8-27.86-58.34-72.93-58.34h-54.37v209.49h31.81v-91.5h13.26c15.9,0,29.18,5.32,57.02,47.75l29.18,43.75h35.8l-15.9-25.19h0ZM1226.5,636.47h-19.9v-66.31h19.9c30.5,0,42.42,11.93,42.42,31.84,1.32,17.22-7.94,34.47-42.42,34.47h0Z"/>
    </g>
  </g>
</svg>