<?xml version="1.0" encoding="UTF-8"?>
<svg id="Camada_2" xmlns="http://www.w3.org/2000/svg" viewBox="0 0 169.64 149.15">
  <defs>
    <style>
      .cls-1 {
        fill: none;
        stroke: #000;
        stroke-miterlimit: 10;
        stroke-width: 6px;
      }
    </style>
  </defs>
  <g id="Camada_1-2" data-name="Camada_1">
    <path class="cls-1" d="M86.21,29.87c-.51,1.24-2.26,1.24-2.77,0-2.41-5.86-8.12-16.28-20.12-22.45-8-4.08-17.55-5.51-28-3.56-13.05,2.67-22.26,12.14-26.1,18.59-4.77,8.01-6.49,15.04-6.18,24.29.3,4.5,1.18,8.29,2.47,11.72,2.97,8.17,6.57,11.43,15.02,22.65,7.37,9.39,16.57,18.65,26.11,28.7,13.14,13.84,26.1,25.58,38.19,35.46,12.08-9.88,25.05-21.62,38.19-35.46,9.54-10.06,18.74-19.31,26.11-28.7,8.45-11.22,12.05-14.47,15.02-22.65,1.29-3.43,2.17-7.22,2.47-11.72.31-9.25-1.41-16.28-6.18-24.29-3.84-6.46-13.04-15.93-26.1-18.59-10.46-1.96-20-.52-28,3.56-12,6.17-17.72,16.58-20.12,22.45Z"/>
  </g>
</svg>