<?xml version="1.0" encoding="UTF-8"?>
<svg id="Camada_2" xmlns="http://www.w3.org/2000/svg" viewBox="0 0 198.76 198.76">
  <g id="Camada_1-2" data-name="Camada_1">
    <g>
      <path d="M190.63,198.26c-2.04,0-3.95-.79-5.39-2.23L2.73,13.52C-.24,10.54-.24,5.71,2.73,2.73c1.44-1.44,3.35-2.23,5.39-2.23s3.95.79,5.39,2.23l182.51,182.51c2.97,2.97,2.97,7.81,0,10.78-1.44,1.44-3.35,2.23-5.39,2.23Z"/>
      <path d="M8.12,1c1.9,0,3.69.74,5.04,2.09l182.51,182.51c2.78,2.78,2.78,7.3,0,10.08-1.35,1.35-3.13,2.09-5.04,2.09s-3.69-.74-5.04-2.09L3.09,13.16C.31,10.38.31,5.86,3.09,3.09c1.35-1.35,3.13-2.09,5.04-2.09M8.12,0C6.05,0,3.97.79,2.38,2.38-.79,5.55-.79,10.7,2.38,13.87l182.51,182.51c1.59,1.59,3.67,2.38,5.74,2.38s4.16-.79,5.74-2.38c3.17-3.17,3.17-8.32,0-11.49L13.87,2.38c-1.59-1.59-3.67-2.38-5.74-2.38h0Z"/>
    </g>
    <g>
      <path d="M8.12,198.26c-2.04,0-3.95-.79-5.39-2.23-2.97-2.97-2.97-7.81,0-10.78L185.24,2.73c1.44-1.44,3.35-2.23,5.39-2.23s3.95.79,5.39,2.23c2.97,2.97,2.97,7.81,0,10.78L13.52,196.03c-1.44,1.44-3.35,2.23-5.39,2.23Z"/>
      <path d="M190.63,1c1.9,0,3.69.74,5.04,2.09,2.78,2.78,2.78,7.3,0,10.08L13.16,195.67c-1.35,1.35-3.13,2.09-5.04,2.09s-3.69-.74-5.04-2.09c-2.78-2.78-2.78-7.3,0-10.08L185.6,3.09c1.35-1.35,3.13-2.09,5.04-2.09M190.63,0c-2.08,0-4.16.79-5.74,2.38L2.38,184.89c-3.17,3.17-3.17,8.32,0,11.49,1.59,1.59,3.67,2.38,5.74,2.38s4.16-.79,5.74-2.38L196.38,13.87c3.17-3.17,3.17-8.32,0-11.49-1.59-1.59-3.67-2.38-5.74-2.38h0Z"/>
    </g>
  </g>
</svg>